<svg id="eE7ey23XDqI1" xmlns="http://www.w3.org/2000/svg" xmlns:xlink="http://www.w3.org/1999/xlink" viewBox="0 0 300 300" shape-rendering="geometricPrecision" text-rendering="geometricPrecision" project-id="d4c7758d8f70478486e107310c9c8c5e" export-id="7c3f1cf95d384414939758159c1ad5dc" cached="false"><path d="M144.5,2C65.799387,2,2,65.799388,2,144.5C2,223.1999,65.799387,287,144.5,287C223.1999,287,287,223.1999,287,144.5C287,65.799388,223.1999,2,144.5,2Z" transform="translate(5.500001 5.500001)" clip-rule="evenodd" fill-rule="evenodd" stroke="#222323" stroke-width="15"/><g transform="matrix(3.107527 0 0 3.225807-3.822586-12.903253)"><path d="M90.233,55.622L96,59.927h-34.911L49.5,97L38.093,59.927v0h-35.093L31.608,38.829L20.892,4L49.728,25.461L78.463,4.281L67.664,38.829L90.233,55.622M49.536,80.897l6.549-20.971h-12.997l6.448,20.971v0ZM81.614,55.15L66.165,43.652L62.578,55.15h19.036v0Zm-24.031,0l4.532-14.522-12.397-9.219-12.561,9.255l4.46,14.486h15.966v0Zm-40.079,0h19.127L33.098,43.661L17.504,55.15v0ZM35.668,35.833l10.054-7.402L29.737,16.524l5.931,19.309v0Zm27.945-.019l5.958-19.063L53.732,28.439l9.881,7.375v0Z" fill="#a61e27"/></g></svg>
